<svg width="26" height="25" viewBox="0 0 26 25" fill="none" xmlns="http://www.w3.org/2000/svg">
<g id="SVG">
<path id="Vector" fillRule="evenodd" clipRule="evenodd" d="M13.0889 16.0385C12.8074 16.3194 12.3514 16.319 12.0705 16.0375C11.7894 15.7559 11.79 15.2998 12.0716 15.0189L14.9014 12.1964L12.0717 9.37493C11.79 9.09399 11.7895 8.63783 12.0706 8.35623C12.3515 8.07478 12.8073 8.07429 13.0889 8.35513L16.8032 12.0605C16.8785 12.1356 16.8785 12.2573 16.8033 12.3324L13.0889 16.0385ZM13.9616 2.83643C8.8006 2.83643 4.60156 7.03547 4.60156 12.1964C4.60156 17.3574 8.8006 21.5564 13.9616 21.5564C19.1226 21.5564 23.3216 17.3574 23.3216 12.1964C23.3216 7.03547 19.1226 2.83643 13.9616 2.83643Z" fill="#066AC9"/>
</g>
</svg>
